{
  "accessors": [
    {
      "bufferView": 1,
      "componentType": 5126,
      "count": 6061,
      "max": [
        1.8159600496292114,
        14.120240211486816,
        14.066020011901855
      ],
      "min": [
        -3.6063599586486816,
        -14.056380271911621,
        -14.144800186157227
      ],
      "type": "VEC3"
    },
    {
      "bufferView": 1,
      "byteOffset": 72732,
      "componentType": 5126,
      "count": 6061,
      "max": [
        0.9997063279151917,
        0.9999420046806335,
        0.9998887181282043
      ],
      "min": [
        -0.7672222256660461,
        -0.9999983906745911,
        -0.9997952580451965
      ],
      "type": "VEC3"
    },
    {
      "bufferView": 0,
      "componentType": 5125,
      "count": 35733,
      "type": "SCALAR"
    }
  ],
  "asset": {
    "extras": {
      "author": "YouniqueĪdeaStudio (https://sketchfab.com/sinnervoncrawsz)",
      "license": "CC-BY-4.0 (http://creativecommons.org/licenses/by/4.0/)",
      "source": "https://sketchfab.com/3d-models/bottle-cap-3199fc3d6aa745fdbbdb153a4bddc903",
      "title": "BOTTLE CAP"
    },
    "generator": "Sketchfab-12.66.0",
    "version": "2.0"
  },
  "bufferViews": [
    {
      "buffer": 0,
      "byteLength": 142932,
      "name": "floatBufferViews",
      "target": 34963
    },
    {
      "buffer": 0,
      "byteLength": 145464,
      "byteOffset": 142932,
      "byteStride": 12,
      "name": "floatBufferViews",
      "target": 34962
    }
  ],
  "buffers": [
    {
      "byteLength": 288396,
      "uri": "scene.bin"
    }
  ],
  "materials": [
    {
      "doubleSided": true,
      "name": "Root",
      "pbrMetallicRoughness": {
        "baseColorFactor": [
          0.8708333015441895,
          0.8708333015441895,
          0.8708333015441895,
          1.0
        ],
        "roughnessFactor": 0.07916669845581059
      }
    }
  ],
  "meshes": [
    {
      "name": "Cylinder_0",
      "primitives": [
        {
          "attributes": {
            "NORMAL": 1,
            "POSITION": 0
          },
          "indices": 2,
          "material": 0,
          "mode": 4
        }
      ]
    }
  ],
  "nodes": [
    {
      "children": [
        1
      ],
      "matrix": [
        0.4677860140800476,
        -0.4501537978649141,
        0.7606167197227477,
        0.0,
        0.7853096723556519,
        -0.18317955732345567,
        -0.5913830995559692,
        0.0,
        0.40554279088974,
        0.8739604353904723,
        0.26782131195068376,
        0.0,
        -1.1507554054260254,
        0.38077536225318925,
        -0.8017475605010985,
        1.0
      ],
      "name": "black_caps"
    },
    {
      "children": [
        2,
        4
      ],
      "name": "Root"
    },
    {
      "children": [
        3
      ],
      "matrix": [
        -0.29086000000000006,
        0.9551700000000001,
        -0.05519000000000001,
        0.0,
        -0.7711,
        -0.19988000000000003,
        0.6045200000000001,
        0.0,
        0.5663900000000001,
        0.21839000000000003,
        0.7946700000000001,
        0.0,
        4.076250000000001,
        1.00545,
        5.903860000000001,
        1.0
      ],
      "name": "Lamp"
    },
    {
      "name": "Lamp"
    },
    {
      "children": [
        5
      ],
      "matrix": [
        0.0,
        0.0,
        0.1501,
        0.0,
        0.0,
        -0.1501,
        0.0,
        0.0,
        0.1501,
        0.0,
        -0.0,
        0.0,
        0.0,
        0.0,
        0.0,
        1.0
      ],
      "name": "Cylinder"
    },
    {
      "mesh": 0,
      "name": "Cylinder_0"
    }
  ],
  "scene": 0,
  "scenes": [
    {
      "name": "Sketchfab_Scene",
      "nodes": [
        0
      ]
    }
  ]
}
